HIERARCHY
ROOT pelvis
{
  OFFSET 0 100 0
  CHANNELS 6 Xposition Yposition Zposition Zrotation Xrotation Yrotation
  JOINT pelvis_right_femur
  {
    OFFSET -10.78128 -3.44521 -0.5502486
    CHANNELS 3 Zrotation Xrotation Yrotation
    JOINT right_femur_tibia
    {
      OFFSET -0.8047443 -44.0398 -0.1307829
      CHANNELS 3 Zrotation Xrotation Yrotation
      JOINT right_tibia_foot
      {
        OFFSET 3.006224 -47.83518 -5
        CHANNELS 3 Zrotation Xrotation Yrotation
        End Site
        {
          OFFSET 0 -5 15
        }
      }
    }
  }
  JOINT pelvis_left_femur
  {
    OFFSET 10.78128 -3.44521 -0.5502486
    CHANNELS 3 Zrotation Xrotation Yrotation
    JOINT left_femur_tibia
    {
      OFFSET 0.8047443 -44.0398 -0.1307829
      CHANNELS 3 Zrotation Xrotation Yrotation
      JOINT left_tibia_foot
      {
        OFFSET -4.370144 -48.10324 -4.275266
        CHANNELS 3 Zrotation Xrotation Yrotation
        End Site
        {
          OFFSET 0 -5 15
        }
      }
    }
  }
  JOINT pelvis_spine1
  {
    OFFSET 0 6.468898 -3.129235
    CHANNELS 3 Zrotation Xrotation Yrotation
    JOINT spine1
    {
      OFFSET 0 23.15396 4.99043
      CHANNELS 3 Zrotation Xrotation Yrotation
      JOINT spine2
      {
        OFFSET 0 20.79997 -5.064912
        CHANNELS 3 Zrotation Xrotation Yrotation
        JOINT neck
        {
          OFFSET 0 14.38658 9.616178
          CHANNELS 3 Zrotation Xrotation Yrotation
          End Site
          {
            OFFSET 0 20 0
          }
        }
      }
      JOINT right_manubrium
      {
        OFFSET -5.722621 16.35077 3.967754
        CHANNELS 3 Zrotation Xrotation Yrotation
        JOINT right_clavicle
        {
          OFFSET -13.16364 1.694482 -4.693211
          CHANNELS 3 Zrotation Xrotation Yrotation
          JOINT right_humerus
          {
            OFFSET -28.5034 -0.3100689 -2.792744
            CHANNELS 3 Zrotation Xrotation Yrotation
            JOINT right_radius
            {
              OFFSET -25.15693 0.02248979 -1.271978
              CHANNELS 3 Zrotation Xrotation Yrotation
              End Site
              {
                OFFSET -15 0 0
              }
            }
          }
        }
      }
      JOINT left_manubrium
      {
        OFFSET 5.722621 16.35077 3.967754
        CHANNELS 3 Zrotation Xrotation Yrotation
        JOINT left_clavicle
        {
          OFFSET 13.16364 1.694482 -4.693211
          CHANNELS 3 Zrotation Xrotation Yrotation
          JOINT left_humerus
          {
            OFFSET 29.39168 -1.063119 -2.237045
            CHANNELS 3 Zrotation Xrotation Yrotation
            JOINT left_radius
            {
              OFFSET 24.59957 -0.9528479 0.9047498
              CHANNELS 3 Zrotation Xrotation Yrotation
              End Site
              {
                OFFSET 15 -0 -0
              }
            }
          }
        }
      }
    }
  }
}
MOTION
Frames: 19
Frame Time: 0.0416666666667
0 103.5113 0 2.387457 -0.2784553 0.06567733 3.418407 -15.10648 11.4513 -0 34.78883 -0 -2.582198 -17.51329 -3.230844 -8.619487 9.788488 -21.30269 -0 4.515417 -0 20.61633 -9.938433 29.61052 -2.381282 -2.227815 4.655363 2.533537 10.30811 -7.189479 1.49314 21.15858 6.859306 2.984144 -24.81577 9.918602 5.643934 -18.96408 11.41844 86.38607 38.0607 -18.29217 -0 0 13.80209 -8.190155 9.138011 5.275806 5.882883 -20.14191 -1.628614 -90.36151 20.6517 19.09786 0 0 -17.64499 13.97538 12.09838 -2.695078
0.4372584 103.4041 1.793619 1.889687 0.9133017 0.07140672 4.418044 -18.41723 12.14687 -0 34.40439 -0 -2.795823 -17.34763 -3.318746 -8.459149 10.03899 -21.38853 -0 4.623548 -0 20.87196 -10.79844 29.98595 -2.511265 -2.135531 4.418874 2.78065 10.29919 -7.340947 1.488478 21.01183 7.098326 3.015274 -25.35688 10.268 5.563515 -18.92526 11.45747 86.99493 38.57538 -19.02071 -0 0 12.95514 -7.439687 8.968866 5.10878 5.868669 -20.20279 -1.955322 -89.56543 20.70255 18.27918 0 0 -19.80329 14.65315 11.22465 -3.242864
0.7975558 103.1609 3.673556 1.432176 0.5744268 0.1238474 4.535048 -20.03562 10.3319 -0 33.44425 -0 -3.997928 -15.61303 -2.908582 -7.941272 10.83105 -21.61861 -0 4.924933 -0 17.53203 -13.1014 28.90107 -2.586101 -2.250333 4.364641 2.974156 10.27016 -7.518781 1.45762 20.91141 7.181475 2.992555 -25.82816 10.41899 5.550486 -19.02312 11.47539 87.19715 38.40084 -19.50802 -0 0 12.82511 -6.982768 8.828471 4.934935 5.936834 -20.32597 -1.95545 -89.65129 21.07613 18.3561 0 0 -20.39495 14.69889 11.16818 -3.116694
1.108747 102.8758 5.706692 0.939931 0.9505156 0.1519889 5.172794 -22.68332 9.775749 -0 32.17371 -0 -4.599569 -14.22488 -2.658369 -7.543656 11.30037 -21.44517 -0 5.306032 -0 16.21193 -14.49058 28.29386 -2.63372 -2.268696 4.278099 3.154446 10.25127 -7.64669 1.429395 20.82678 7.287704 2.97683 -26.21665 10.58027 5.507188 -19.04743 11.50513 87.47614 38.41648 -19.97944 -0 0 12.46592 -6.551535 8.713459 4.841568 5.941487 -20.41028 -2.068492 -89.47522 21.34427 18.18429 0 0 -21.36815 14.83076 10.84695 -3.082087
1.382011 102.5062 7.947372 0.454662 1.292385 0.1869514 5.8002 -25.35959 9.145218 -0 30.47154 -0 -5.154392 -12.57229 -2.354158 -7.124209 11.77918 -21.08164 -0 5.812055 -0 14.83909 -15.84944 27.46321 -2.656898 -2.289281 4.21292 3.324641 10.23587 -7.765568 1.394683 20.7601 7.368908 2.950998 -26.56229 10.69998 5.471673 -19.06394 11.53777 87.7044 38.34537 -20.4091 -0 0 12.1499 -6.177286 8.604624 4.77524 5.92964 -20.49338 -2.165418 -89.3871 21.65293 18.10705 0 0 -22.15547 14.84676 10.59145 -2.920261
1.632163 102.0566 10.46925 0.001745943 1.727947 0.2409675 6.487991 -28.07547 8.66266 -0 28.3281 -0 -5.580061 -10.79516 -2.006637 -6.748929 12.21667 -20.49007 -0 6.530629 -0 13.96271 -16.86054 26.59978 -2.644441 -2.266093 4.153639 3.468308 10.23063 -7.849682 1.358164 20.71971 7.430948 2.921373 -26.8073 10.77608 5.434361 -19.03399 11.57564 87.91651 38.29228 -20.77772 -0 0 11.78572 -5.889798 8.522407 4.76632 5.877554 -20.55541 -2.291048 -89.25608 21.91447 17.99496 0 0 -22.89162 14.80729 10.29568 -2.712308
1.868066 101.5347 13.34281 -0.4052498 2.17399 0.3342106 7.123121 -30.5579 8.140788 -0 25.83336 -0 -5.97448 -8.914404 -1.615194 -6.411936 12.6619 -19.71764 -0 7.558638 -0 13.21329 -17.62554 25.56595 -2.602791 -2.214216 4.102021 3.590773 10.23433 -7.910995 1.319075 20.70175 7.47064 2.887015 -26.96953 10.8069 5.400974 -18.96728 11.61732 88.10583 38.22295 -21.09782 -0 0 11.40295 -5.678125 8.45839 4.798788 5.795424 -20.60449 -2.430041 -89.11912 22.14661 17.88061 0 0 -23.5258 14.69913 9.999061 -2.443666
2.095598 100.9756 16.63553 -0.7586959 2.607664 0.4870156 7.661196 -32.56578 7.55456 -0 23.1797 -0 -6.390622 -7.051206 -1.202268 -6.122313 13.10127 -18.78598 -0 9.071493 -0 12.53349 -18.04311 24.32854 -2.53211 -2.129189 4.056791 3.686773 10.249 -7.946984 1.279356 20.70771 7.485006 2.849113 -27.03449 10.78764 5.372775 -18.85805 11.66184 88.27254 38.1461 -21.36159 -0 0 11.00071 -5.553175 8.416798 4.873022 5.683176 -20.63863 -2.583494 -88.96274 22.32939 17.74749 0 0 -24.0499 14.52945 9.700683 -2.129805
2.316929 100.4393 20.40001 -1.071656 2.979141 0.7139405 8.076218 -33.85587 6.885556 -0 20.65196 -0 -6.895709 -5.337691 -0.813986 -5.860386 13.49831 -17.72486 -0 11.29183 -0 11.73882 -18.04381 22.81352 -2.437695 -2.01814 4.019242 3.756793 10.27485 -7.96259 1.239951 20.73564 7.471972 2.808035 -27.00779 10.71775 5.352886 -18.71197 11.70759 88.41041 38.04791 -21.56881 -0 0 10.59811 -5.512131 8.394447 4.980077 5.547083 -20.66079 -2.743392 -88.8024 22.46713 17.60772 0 0 -24.43788 14.29541 9.420296 -1.770114
2.532463 100.0091 24.66199 -1.370329 3.21592 1.011858 8.397802 -34.21525 6.18461 -0 18.602 -0 -7.548123 -3.915116 -0.5087376 -5.587856 13.75319 -16.55926 -0 14.49469 -0 10.71619 -17.49532 20.9913 -2.324233 -1.887091 3.992774 3.798361 10.31262 -7.959569 1.202451 20.78472 7.429092 2.764573 -26.8905 10.5966 5.344217 -18.53576 11.75246 88.50865 37.91921 -21.71001 -0 0 10.21876 -5.55726 8.390741 5.112852 5.392696 -20.67176 -2.901292 -88.65434 22.56207 17.4755 0 0 -24.65862 13.99456 9.17741 -1.365665
2.742997 99.77817 29.40546 -1.682323 3.219069 1.34642 8.693132 -33.50867 5.541896 -0 17.34264 -0 -8.384123 -2.895957 -0.3466026 -5.251878 13.69133 -15.31196 -0 18.94483 -0 9.412929 -16.269 18.89332 -2.197349 -1.744794 3.983517 3.808856 10.3623 -7.939166 1.168241 20.85369 7.354974 2.719715 -26.68887 10.42599 5.349448 -18.34157 11.79383 88.55151 37.74974 -21.77143 -0 0 9.895524 -5.689612 8.404679 5.263325 5.2267 -20.67194 -3.045816 -88.54451 22.62353 17.37719 0 0 -24.67537 13.6229 8.995684 -0.9140923
2.951912 99.82737 34.56004 -2.00842 2.88377 1.643244 9.013219 -31.70367 5.036351 -0 16.99985 -0 -9.396833 -2.347245 -0.3643141 -4.812028 13.05624 -14.00325 -0 24.7977 -0 7.909632 -14.29603 16.65324 -2.061907 -1.599445 4.000185 3.782952 10.42322 -7.898933 1.139072 20.94179 7.249181 2.674993 -26.40747 10.20949 5.36985 -18.14423 11.82859 88.51981 37.53749 -21.73086 -0 0 9.666072 -5.914589 8.438591 5.425701 5.055846 -20.65955 -3.164449 -88.49944 22.65935 17.34262 0 0 -24.45195 13.17997 8.897062 -0.4168259
3.164973 100.2011 40.00045 -2.295887 2.147795 1.798542 9.318152 -28.87208 4.662123 -0 17.36265 -0 -10.51709 -2.285639 -0.5481688 -4.271417 11.5508 -12.65554 -0 31.94848 -0 6.410136 -11.6766 14.49348 -1.921404 -1.457697 4.053116 3.712622 10.49344 -7.832204 1.117192 21.04868 7.1126 2.632418 -26.04753 9.952595 5.404114 -17.95959 11.8533 88.3939 37.29186 -21.55955 -0 0 9.568177 -6.242708 8.49936 5.59785 4.887258 -20.63086 -3.244573 -88.54046 22.67242 17.39883 0 0 -23.9617 12.67216 8.898225 0.1175712
3.38628 100.8904 45.56882 -2.439206 1.042242 1.720102 9.454906 -25.15737 4.305004 -0 17.87598 -0 -11.61462 -2.680269 -0.8184539 -3.68507 8.937975 -11.29992 -0 39.89039 -0 5.164684 -8.744282 12.65845 -1.777499 -1.323463 4.152564 3.587437 10.56938 -7.727971 1.10548 21.17431 6.947193 2.594195 -25.60358 9.661967 5.44731 -17.80173 11.86462 88.15673 37.03453 -21.22422 -0 0 9.633613 -6.690752 8.598763 5.783484 4.72831 -20.58042 -3.275249 -88.67639 22.65589 17.56122 0 0 -23.19563 12.11465 9.006494 0.6704263
3.612544 101.8312 51.11891 -2.328901 -0.3025928 1.384063 9.241605 -20.73807 3.812865 -0 17.87273 -0 -12.53207 -3.441916 -1.049672 -3.116384 5.175737 -9.977648 -0 47.66981 -0 4.342244 -6.000138 11.32871 -1.631028 -1.198891 4.306757 3.397297 10.64561 -7.573269 1.106641 21.31831 6.756012 2.562095 -25.0658 9.34476 5.490601 -17.68237 11.86014 87.79548 36.79212 -20.69172 -0 0 9.884837 -7.279147 8.749328 5.99359 4.58616 -20.50206 -3.248627 -88.9026 22.59477 17.83135 0 0 -22.16541 11.52806 9.218067 1.216716
3.831601 102.9154 56.55745 -1.928473 -1.718965 0.8612087 8.618364 -15.81464 3.12167 -0 16.9474 -0 -13.14026 -4.416158 -1.132944 -2.561617 0.4931905 -8.722552 -0 54.00899 -0 3.947128 -3.903521 10.58549 -1.484086 -1.087108 4.520572 3.13649 10.71439 -7.357169 1.121615 21.47883 6.543757 2.536902 -24.42812 9.008415 5.521914 -17.61311 11.83911 87.30113 36.58409 -19.93462 -0 0 10.33621 -8.026649 8.957286 6.246285 4.46713 -20.39005 -3.16025 -89.20772 22.47403 18.20357 0 0 -20.89958 10.93071 9.519665 1.734549
4.029562 103.9992 61.85282 -1.323619 -3.077039 0.2820827 7.733213 -10.61805 2.324064 -0 15.1768 -0 -13.37574 -5.439651 -1.048227 -1.910998 -4.670667 -7.529808 -0 57.57298 -0 3.83324 -2.661165 10.43203 -1.341681 -0.99532 4.795167 2.80721 10.76516 -7.074942 1.14809 21.65128 6.317971 2.518327 -23.69932 8.661559 5.527259 -17.60868 11.8026 86.66882 36.41353 -18.9385 -0 0 10.99742 -8.943879 9.217187 6.56356 4.377208 -20.24099 -3.007766 -89.58375 22.28993 18.67593 0 0 -19.43853 10.3321 9.893558 2.215052
4.205345 104.9077 67.01253 -0.7010179 -4.298891 -0.2329671 6.875522 -5.411771 1.613054 -0 13.01152 -0 -13.23249 -6.4615 -0.8862933 -0.9942892 -9.823037 -6.344032 -0 57.29393 -0 3.795219 -2.172488 10.81638 -1.21124 -0.9358393 5.127942 2.420628 10.78451 -6.730649 1.180303 21.82742 6.090009 2.505435 -22.90972 8.315483 5.492265 -17.68732 11.75283 85.90185 36.2683 -17.71075 -0 0 11.87321 -10.02807 9.512826 6.964903 4.323925 -20.05644 -2.789174 -90.03057 22.0557 19.25459 0 0 -17.83535 9.734528 10.32265 2.663763
4.38442 105.4539 72.06212 -0.2700441 -5.312932 -0.6295547 6.316135 -0.4709107 1.159332 -0 10.99069 -0 -12.72704 -7.617629 -0.7929819 0.3110638 -14.53354 -5.086283 -0 52.70532 -0 3.673604 -2.138549 11.62037 -1.100051 -0.923529 5.511481 1.995672 10.75797 -6.337788 1.210448 21.99545 5.874727 2.497174 -22.10905 7.984883 5.40426 -17.8655 11.6922 85.01956 36.13216 -16.28949 -0 0 12.95492 -11.25907 9.823577 7.459618 4.317658 -19.84545 -2.503107 -90.54935 21.79692 19.94507 0 0 -16.16308 9.142959 10.7918 3.09083
